<svg width="300" height="300" viewBox="0 0 300 300" fill="none" xmlns="http://www.w3.org/2000/svg">
<rect width="300" height="300" fill="black" fill-opacity="0.5"/>
<rect width="25.1624" height="6.2906" transform="matrix(-0.72074 0.693205 0.72074 0.693205 128.135 159.197)" fill="white"/>
<path fill-rule="evenodd" clip-rule="evenodd" d="M154.27 167.771C138.041 167.771 124.885 154.683 124.885 138.539C124.885 122.395 138.041 109.308 154.27 109.308C170.498 109.308 183.654 122.395 183.654 138.539C183.654 154.683 170.498 167.771 154.27 167.771ZM154.27 175.079C133.984 175.079 117.539 158.719 117.539 138.539C117.539 118.359 133.984 102 154.27 102C174.555 102 191 118.359 191 138.539C191 158.719 174.555 175.079 154.27 175.079Z" fill="white"/>
<path d="M152 126L152 151L157.995 151L157.995 126L152 126Z" fill="white"/>
<path d="M167.234 136L142.234 136L142.234 141.995L167.234 141.995L167.234 136Z" fill="white"/>
</svg>
