<svg width="23" height="22" viewBox="0 0 23 22" fill="none" xmlns="http://www.w3.org/2000/svg">
<path d="M4.93747 15.6534L0 20.4271L1.23437 21.6205L6.17184 16.8468L4.93747 15.6534Z" fill="#C283F3"/>
<path fill-rule="evenodd" clip-rule="evenodd" d="M12.0969 18C7.53038 18 3.9969 14.3229 3.9969 10C3.9969 5.67715 7.53038 2 12.0969 2C16.6634 2 20.1969 5.67715 20.1969 10C20.1969 14.3229 16.6634 18 12.0969 18ZM12.0969 20C6.57405 20 2.0969 15.5228 2.0969 10C2.0969 4.47715 6.57405 0 12.0969 0C17.6197 0 22.0969 4.47715 22.0969 10C22.0969 15.5228 17.6197 20 12.0969 20Z" fill="#C283F3"/>
</svg>
