<svg width="750" height="470" viewBox="0 0 750 470" fill="none" xmlns="http://www.w3.org/2000/svg">
<rect width="750" height="470" fill="#ECECEC"/>
<path d="M310.773 366H307.551L303.262 358.992L298.938 366H295.938L301.621 357.117L296.301 348.867H299.418L303.379 355.348L307.34 348.867H310.363L305.008 357.164L310.773 366ZM317.898 360.738V358.395H323.922V360.738H317.898ZM345.906 366H342.684L338.395 358.992L334.07 366H331.07L336.754 357.117L331.434 348.867H334.551L338.512 355.348L342.473 348.867H345.496L340.141 357.164L345.906 366ZM345.953 353.039H348.953L351.59 360.387C351.988 361.434 352.254 362.418 352.387 363.34H352.48C352.551 362.91 352.68 362.391 352.867 361.781C353.055 361.164 354.047 358.25 355.844 353.039H358.82L353.277 367.723C352.27 370.418 350.59 371.766 348.238 371.766C347.629 371.766 347.035 371.699 346.457 371.566V369.387C346.871 369.48 347.344 369.527 347.875 369.527C349.203 369.527 350.137 368.758 350.676 367.219L351.156 366L345.953 353.039ZM373.223 370.582H370.656V366H361.773V370.582H359.23V363.867H360.285C361.207 362.547 361.938 360.953 362.477 359.086C363.023 357.211 363.348 355.195 363.449 353.039H371.324V363.867H373.223V370.582ZM368.617 363.867V355.148H365.828C365.68 356.758 365.367 358.344 364.891 359.906C364.422 361.469 363.848 362.789 363.168 363.867H368.617ZM387.121 359.496C387.121 361.613 386.578 363.266 385.492 364.453C384.406 365.641 382.895 366.234 380.957 366.234C379.746 366.234 378.676 365.961 377.746 365.414C376.816 364.867 376.102 364.082 375.602 363.059C375.102 362.035 374.852 360.848 374.852 359.496C374.852 357.395 375.391 355.754 376.469 354.574C377.547 353.395 379.066 352.805 381.027 352.805C382.902 352.805 384.387 353.41 385.48 354.621C386.574 355.824 387.121 357.449 387.121 359.496ZM377.688 359.496C377.688 362.488 378.793 363.984 381.004 363.984C383.191 363.984 384.285 362.488 384.285 359.496C384.285 356.535 383.184 355.055 380.98 355.055C379.824 355.055 378.984 355.438 378.461 356.203C377.945 356.969 377.688 358.066 377.688 359.496ZM396.684 359.332V353.039H399.25V359.332L404.242 353.039H407.148L402.051 359.309L407.605 366H404.57L399.25 359.426V366H396.684V359.426L391.375 366H388.352L393.895 359.309L388.809 353.039H391.715L396.684 359.332ZM412.363 353.039V358.242H418.469V353.039H421.223V366H418.469V360.41H412.363V366H409.609V353.039H412.363ZM427.809 353.039V359.684C427.809 360.457 427.746 361.594 427.621 363.094L434.125 353.039H437.488V366H434.84V359.473C434.84 359.113 434.859 358.531 434.898 357.727C434.945 356.922 434.984 356.336 435.016 355.969L428.535 366H425.172V353.039H427.809ZM449.453 353.039H452.477L447.121 359.285L452.934 366H449.77L444.168 359.426V366H441.414V353.039H444.168V359.332L449.453 353.039Z" fill="#666666"/>
<path d="M296.735 150.804C302.808 150.804 307.749 145.863 307.749 139.791C307.749 133.719 302.808 128.778 296.735 128.778C290.663 128.778 285.722 133.719 285.722 139.791C285.722 145.863 290.663 150.804 296.735 150.804ZM296.735 135.071C299.338 135.071 301.455 137.188 301.455 139.791C301.455 142.394 299.338 144.511 296.735 144.511C294.132 144.511 292.015 142.394 292.015 139.791C292.015 137.188 294.133 135.071 296.735 135.071Z" fill="#B6B6B6"/>
<path d="M439.909 193.284C439.909 199.357 444.85 204.298 450.922 204.298C456.994 204.298 461.935 199.357 461.935 193.284C461.935 187.212 456.994 182.271 450.922 182.271C444.85 182.271 439.909 187.212 439.909 193.284ZM450.922 188.564C453.525 188.564 455.642 190.681 455.642 193.284C455.642 195.887 453.525 198.004 450.922 198.004C448.319 198.004 446.202 195.887 446.202 193.284C446.202 190.681 448.32 188.564 450.922 188.564Z" fill="#B6B6B6"/>
<path d="M463.509 159.087C465.476 159.087 467.071 157.492 467.071 155.524C467.071 153.557 465.476 151.961 463.509 151.961C461.541 151.961 459.946 153.557 459.946 155.524C459.946 157.492 461.541 159.087 463.509 159.087Z" fill="#B6B6B6"/>
<path d="M312.469 171.674C314.436 171.674 316.031 170.079 316.031 168.111C316.031 166.143 314.436 164.548 312.469 164.548C310.501 164.548 308.906 166.143 308.906 168.111C308.906 170.079 310.501 171.674 312.469 171.674Z" fill="#B6B6B6"/>
<path d="M428.757 144.649C429.371 145.264 430.177 145.571 430.981 145.571C431.786 145.571 432.592 145.264 433.206 144.649L436.762 141.094L440.318 144.649C440.932 145.264 441.738 145.571 442.542 145.571C443.347 145.571 444.153 145.264 444.767 144.649C445.996 143.421 445.996 141.429 444.767 140.2L441.211 136.644L444.767 133.088C445.996 131.86 445.996 129.868 444.767 128.639C443.538 127.41 441.546 127.41 440.318 128.639L436.762 132.195L433.206 128.639C431.977 127.41 429.986 127.41 428.757 128.639C427.528 129.868 427.528 131.86 428.757 133.088L432.313 136.644L428.757 140.2C427.528 141.429 427.528 143.42 428.757 144.649Z" fill="#B6B6B6"/>
<path d="M284.01 210.729C284.625 211.344 285.43 211.651 286.235 211.651C287.04 211.651 287.845 211.344 288.46 210.729L292.015 207.174L295.571 210.729C296.185 211.344 296.991 211.651 297.796 211.651C298.601 211.651 299.406 211.344 300.02 210.729C301.249 209.501 301.249 207.509 300.02 206.28L296.465 202.724L300.02 199.169C301.249 197.94 301.249 195.948 300.02 194.719C298.792 193.49 296.8 193.49 295.571 194.719L292.015 198.275L288.46 194.719C287.231 193.49 285.239 193.49 284.01 194.719C282.781 195.948 282.781 197.94 284.01 199.169L287.566 202.724L284.01 206.28C282.781 207.509 282.781 209.5 284.01 210.729Z" fill="#B6B6B6"/>
<path d="M391.135 212.164C392.873 212.164 394.282 210.755 394.282 209.018C394.282 207.28 392.873 205.871 391.135 205.871C389.398 205.871 387.989 207.28 387.989 209.018C387.989 210.755 389.398 212.164 391.135 212.164Z" fill="#B6B6B6"/>
<path d="M359.669 212.164C361.406 212.164 362.815 210.755 362.815 209.018C362.815 207.28 361.406 205.871 359.669 205.871C357.931 205.871 356.522 207.28 356.522 209.018C356.522 210.755 357.931 212.164 359.669 212.164Z" fill="#B6B6B6"/>
<path d="M462.249 259.994C458.258 256.998 457.923 252.158 457.536 246.556C456.93 237.823 456.177 226.957 438.726 224.775C429.833 223.672 421.017 226.521 413.888 232.811C407.963 238.044 403.779 245.181 401.829 252.901L389.563 247.327V244.789C389.563 244.76 389.547 244.735 389.546 244.706C401.589 238.952 410.745 228.23 414.46 215.305C416.553 215.36 418.479 214.797 420.381 213.612C423.301 211.79 425.277 208.827 425.664 205.681C426.054 202.528 425.077 199.366 422.991 197.003C421.556 195.383 419.694 194.237 417.647 193.675C417.641 193.122 417.619 191.111 417.611 190.902C417.769 190.525 417.884 176.877 417.884 176.877C418.612 176.79 419.322 176.658 419.992 176.426C422.352 175.612 424.153 173.94 425.339 171.46H425.342C429.436 162.906 422.121 150.788 408.223 141.458C409.197 138.992 409.299 136.304 408.411 133.783C407.43 131.009 405.433 128.781 402.781 127.511C400.129 126.236 397.142 126.076 394.362 127.053C391.838 127.944 389.806 129.708 388.497 132.01C372.517 127.03 358.489 128.925 354.389 137.48C353.467 139.407 353.268 141.421 353.715 143.371C340.248 149.528 332.869 161.169 332.925 176.361L332.965 181.557C332.996 184.498 333.074 190.007 333.132 190.253C333.131 190.299 333.164 192.9 333.164 193.668C331.272 194.181 329.547 195.198 328.146 196.649C326.054 198.822 324.959 201.68 325.067 204.696C325.184 208.064 327.095 211.315 330.174 213.393C332.12 214.705 334.071 215.347 336.191 215.313C339.482 227.337 347.464 237.428 358.113 243.555C358.112 243.581 358.098 243.603 358.098 243.63V247.327L333.02 258.724C321.493 263.963 314.044 275.671 314.044 288.546V314.429C314.044 316.169 315.452 317.576 317.191 317.576H430.471C432.21 317.576 433.618 316.169 433.618 314.429V299.941C435.168 300.136 436.736 300.269 438.338 300.269C452.237 300.269 466.974 291.275 470.523 280.63C471.959 276.318 472.795 267.904 462.249 259.994ZM396.452 132.991C397.644 132.573 398.923 132.646 400.056 133.184C401.949 134.093 402.939 136.101 402.674 138.074C401.386 137.366 400.066 136.676 398.698 136.02C397.342 135.371 395.99 134.779 394.642 134.224C395.151 133.69 395.737 133.242 396.452 132.991ZM360.062 140.197C361.479 137.244 365.901 135.526 372.102 135.526C378.583 135.526 387.009 137.4 395.981 141.696C413.54 150.11 422.553 162.703 419.662 168.744C419.084 169.952 418.435 170.305 417.935 170.48C414.272 171.734 405.585 167.435 396.366 162.887C394.101 161.769 391.726 160.595 389.243 159.406C386.806 158.238 384.391 157.116 382.049 156.028C371.886 151.305 361.383 146.419 359.893 142.268C359.648 141.582 359.696 140.961 360.062 140.197ZM356.913 148.82C361.327 153.327 369.566 157.166 379.394 161.735C381.717 162.813 384.11 163.926 386.526 165.085C388.984 166.261 391.338 167.423 393.581 168.529C400.723 172.057 406.654 174.978 411.589 176.267V188.165C402.173 195.245 391.526 197.928 381.462 195.728C372.439 193.758 364.958 188.04 360.938 180.041C360.48 179.131 359.61 178.498 358.605 178.345C357.594 178.182 356.577 178.529 355.87 179.26C351.811 183.439 345.883 185.95 339.292 186.362C339.289 184.843 339.27 183.19 339.255 181.497L339.215 176.337C339.156 160.121 348.618 152.443 356.913 148.82ZM341.646 211.089C341.465 210.207 340.915 209.445 340.134 208.993C339.354 208.545 338.416 208.458 337.559 208.738C336.343 209.153 335.218 209.209 333.694 208.176C332.299 207.236 331.401 205.816 331.352 204.473C331.305 203.177 331.776 201.95 332.673 201.019C333.571 200.09 334.775 199.578 336.069 199.578C336.92 199.578 337.768 199.215 338.361 198.607C339.235 197.708 339.505 196.937 339.451 192.643C346.182 192.265 352.427 190.07 357.321 186.352C362.468 194.222 370.584 199.796 380.119 201.876C382.872 202.479 385.653 202.777 388.44 202.777C396.267 202.775 404.115 200.392 411.421 195.855C411.541 197.293 411.828 197.981 412.464 198.625C413.054 199.224 413.893 199.578 414.735 199.578C416.088 199.578 417.378 200.158 418.272 201.172C419.182 202.199 419.588 203.526 419.418 204.912C419.259 206.19 418.374 207.444 417.052 208.271C415.724 209.098 414.6 209.224 413.177 208.723C412.329 208.412 411.386 208.501 410.599 208.937C409.809 209.377 409.247 210.135 409.053 211.018C405.989 225.086 395.591 236.578 381.913 241.01L380.524 241.464C376.612 242.733 372.614 242.78 368.97 241.603C355.057 237.126 344.587 225.433 341.646 211.089ZM367.041 247.595C369.425 248.363 371.905 248.744 374.422 248.744C377.093 248.744 379.8 248.314 382.467 247.45L383.27 247.188V248.351C383.27 253.556 379.035 257.791 373.83 257.791C368.624 257.791 364.39 253.556 364.39 248.351V246.552C365.274 246.898 366.129 247.301 367.041 247.595ZM427.322 311.284H408.442V295.551C408.442 293.812 407.035 292.404 405.295 292.404C403.556 292.404 402.149 293.812 402.149 295.551V311.284H342.362V295.551C342.362 293.812 340.955 292.404 339.215 292.404C337.476 292.404 336.069 293.812 336.069 295.551V311.284H320.335V288.548C320.335 278.134 326.337 268.675 335.623 264.453L359.118 253.776C361.339 259.774 367.068 264.084 373.829 264.084C380.59 264.084 386.319 259.774 388.539 253.775L400.75 259.323C400.662 260.384 400.575 261.445 400.575 262.511C400.575 279.502 411.858 293.897 427.322 298.623V311.284ZM464.55 278.641C461.874 286.667 449.379 293.978 438.335 293.978C420.985 293.978 406.869 279.861 406.869 262.511C406.869 253.05 411.051 243.711 418.054 237.531C423.008 233.158 428.929 230.835 434.989 230.835C435.972 230.835 436.959 230.896 437.945 231.019C450.258 232.559 450.677 238.612 451.257 246.989C451.688 253.231 452.176 260.304 458.476 265.027C464.108 269.253 466.152 273.835 464.55 278.641Z" fill="#B6B6B6"/>
<path d="M450.922 265.787C445.788 265.787 441.611 269.963 441.611 275.098C441.611 280.229 445.788 284.405 450.922 284.405C456.057 284.405 460.233 280.229 460.233 275.098C460.233 269.963 456.057 265.787 450.922 265.787ZM450.922 278.112C449.26 278.112 447.904 276.76 447.904 275.098C447.904 273.435 449.26 272.08 450.922 272.08C452.584 272.08 453.94 273.435 453.94 275.098C453.94 276.76 452.584 278.112 450.922 278.112Z" fill="#B6B6B6"/>
<path d="M432.042 235.396C427.501 235.396 423.806 239.089 423.806 243.631C423.806 248.173 427.5 251.867 432.042 251.867C436.584 251.867 440.278 248.173 440.278 243.631C440.278 239.089 436.584 235.396 432.042 235.396ZM432.042 245.573C430.973 245.573 430.1 244.701 430.1 243.631C430.1 242.561 430.972 241.689 432.042 241.689C433.112 241.689 433.984 242.561 433.984 243.631C433.984 244.701 433.112 245.573 432.042 245.573Z" fill="#B6B6B6"/>
<path d="M426.118 260.938C426.118 256.396 422.424 252.702 417.882 252.702C413.34 252.702 409.646 256.395 409.646 260.938C409.646 265.48 413.34 269.173 417.882 269.173C422.424 269.173 426.118 265.48 426.118 260.938ZM417.882 262.88C416.813 262.88 415.94 262.007 415.94 260.938C415.94 259.868 416.812 258.995 417.882 258.995C418.952 258.995 419.824 259.868 419.824 260.938C419.824 262.007 418.952 262.88 417.882 262.88Z" fill="#B6B6B6"/>
<path d="M428.895 273.155C424.354 273.155 420.66 276.849 420.66 281.391C420.66 285.933 424.353 289.626 428.895 289.626C433.437 289.626 437.131 285.933 437.131 281.391C437.131 276.849 433.437 273.155 428.895 273.155ZM428.895 283.333C427.826 283.333 426.953 282.461 426.953 281.391C426.953 280.321 427.825 279.449 428.895 279.449C429.965 279.449 430.838 280.321 430.838 281.391C430.838 282.461 429.965 283.333 428.895 283.333Z" fill="#B6B6B6"/>
<path d="M305.303 240.131C304.719 239.554 304.126 238.967 303.549 238.361C303.548 238.36 303.547 238.36 303.547 238.359C303.546 238.359 303.546 238.359 303.546 238.358C301.134 235.835 299.527 233.536 299.527 230.528C299.527 226.53 297.453 225.433 296.214 225.136C291.307 223.894 285.561 233.525 282.574 239.348C280.779 242.847 278.637 247.746 278.637 251.209C278.637 257.315 282.005 262.599 286.944 265.459L285.124 305.882C284.976 309.148 286.12 312.308 288.261 314.545C290.13 316.502 292.582 317.578 295.163 317.578C297.744 317.578 300.196 316.502 302.064 314.545C304.206 312.308 305.349 309.149 305.201 305.882L303.381 265.459C308.32 262.598 311.689 257.314 311.689 251.209C311.688 246.455 308.295 243.094 305.303 240.131ZM293.564 233.622C294.148 236.256 295.429 238.447 296.914 240.333C295.801 241.16 294.704 241.596 293.632 241.639C292.188 241.633 290.62 240.966 289.342 240.041C290.866 237.334 292.363 235.15 293.564 233.622ZM298.914 306.165C298.985 307.722 298.475 309.195 297.516 310.196C297.043 310.694 296.248 311.284 295.163 311.284C294.078 311.284 293.282 310.694 292.809 310.196C291.85 309.195 291.34 307.722 291.411 306.165L293.15 267.531C293.818 267.613 294.474 267.735 295.163 267.735C295.852 267.735 296.508 267.614 297.175 267.531L298.914 306.165ZM295.162 261.442C289.52 261.442 284.929 256.851 284.929 251.209C284.929 250.317 285.396 248.42 286.549 245.686C288.815 247.136 291.12 247.936 293.447 247.936C293.589 247.936 293.729 247.932 293.874 247.926C296.451 247.827 298.909 246.815 301.216 244.941C303.49 247.2 305.395 249.181 305.395 251.208C305.395 256.851 300.804 261.442 295.162 261.442Z" fill="#B6B6B6"/>
</svg>
